<?xml version="1.0" encoding="iso-8859-1"?>
<!-- Generator: Adobe Illustrator 16.0.0, SVG Export Plug-In . SVG Version: 6.00 Build 0)  -->
<!DOCTYPE svg PUBLIC "-//W3C//DTD SVG 1.1//EN" "http://www.w3.org/Graphics/SVG/1.1/DTD/svg11.dtd">
<svg version="1.1" id="Capa_1" xmlns="http://www.w3.org/2000/svg" xmlns:xlink="http://www.w3.org/1999/xlink" x="0px" y="0px"
	 width="487.086px" height="487.086px" viewBox="0 0 487.086 487.086" style="enable-background:new 0 0 487.086 487.086;"
	 xml:space="preserve">
<g>
	<g>
		<g>
			<path d="M391.471,37.711h-17.543V25.754C373.928,11.516,362.396,0,348.174,0H138.896c-14.207,0-25.738,11.516-25.738,25.754
				v11.957H95.616c-9.395,0-17.02,7.625-17.02,17.02v22.668c0,3.527,2.863,6.375,6.375,6.375h317.145
				c3.513,0,6.375-2.848,6.375-6.375V54.731C408.49,45.336,400.865,37.711,391.471,37.711z"/>
			<path d="M326.787,364.965l-7.48,85.105c-0.238,2.625-2.406,4.615-5.062,4.615H172.842c-2.609,0-4.824-2.021-5.063-4.615
				l-7.48-85.105h-22.543c-3.527,0-6.898-0.647-10.125-1.613l7.879,89.531c1.707,19.508,17.766,34.203,37.332,34.203h141.403
				c19.563,0,35.62-14.695,37.332-34.203l7.875-89.5c-3.195,0.949-6.5,1.582-9.98,1.582H326.787z"/>
			<path d="M113.033,197.195c4.285-1.789,8.887-2.816,13.633-2.816h18.652l-5.141-58.402h206.746l-5.142,58.402h18.777
				c4.699,0,9.254,1.012,13.508,2.781l8.228-93.582H104.807L113.033,197.195z"/>
			<path d="M360.561,218.676H147.436h-20.77c-3.113,0-6.09,1.328-8.16,3.637c-1.82,2.043-2.645,4.699-2.609,7.402
				c0,0.383-0.16,0.73-0.113,1.109l1.012,9.109l10.063,90.988c0.617,5.569,5.301,9.746,10.898,9.746h211.714
				c5.604,0,10.281-4.177,10.898-9.746l9.414-85.103l1.483-16.8c-0.141-2.469-0.883-4.84-2.543-6.707
				C366.65,220.004,363.678,218.676,360.561,218.676z M268.748,308.352c-22.191,22.207-53.041,27.363-68.888,11.531
				c-15.836-15.852-10.68-46.695,11.531-68.891c22.191-22.211,53.039-27.367,68.887-11.531
				C296.115,255.312,290.959,286.141,268.748,308.352z"/>
			<path d="M266.028,243.731c-17.465,4.891-31.18,18.839-35.796,36.382c-1.551,5.841-5.41,10.884-10.633,13.858l-11.418,6.531
				c-3.895,2.215-5.238,7.168-3.023,11.059c1.504,2.609,4.238,4.082,7.039,4.082c1.379,0,2.754-0.352,4.02-1.077l11.422-6.517
				c8.953-5.125,15.609-13.793,18.254-23.793c3.164-12.035,12.56-21.574,24.504-24.93c4.316-1.219,6.816-5.695,5.613-9.996
				C274.807,245.027,270.36,242.496,266.028,243.731z"/>
		</g>
	</g>
</g>
<g>
</g>
<g>
</g>
<g>
</g>
<g>
</g>
<g>
</g>
<g>
</g>
<g>
</g>
<g>
</g>
<g>
</g>
<g>
</g>
<g>
</g>
<g>
</g>
<g>
</g>
<g>
</g>
<g>
</g>
</svg>
