<?xml version="1.0" encoding="utf-8"?>
<!-- Generator: Adobe Illustrator 16.0.0, SVG Export Plug-In . SVG Version: 6.00 Build 0)  -->
<!DOCTYPE svg PUBLIC "-//W3C//DTD SVG 1.1//EN" "http://www.w3.org/Graphics/SVG/1.1/DTD/svg11.dtd">
<svg version="1.1" id="Layer_1" xmlns="http://www.w3.org/2000/svg" xmlns:xlink="http://www.w3.org/1999/xlink" x="0px" y="0px"
	 width="512px" height="512px" viewBox="0 0 512 512" enable-background="new 0 0 512 512" xml:space="preserve">
<g>
	<path d="M8.874,342.961c0,13.52,10.969,24.484,24.489,24.484h255.282v-48.964H33.363C19.843,318.481,8.874,329.437,8.874,342.961z"
		/>
	<path d="M44.596,270.131V87.257H337.59l0.2,135.191v-0.082v-0.022v-0.019c0,0,6.155-25.435,32.453-34.026V85.664
		c0-17.124-13.924-31.051-31.035-31.051H42.996c-17.111,0-31.053,13.927-31.053,31.051v186.059c0,17.12,13.942,31.053,31.053,31.053
		h245.649v-2.491c0-9.083,5.228-22.13,30.794-30.153H44.596z"/>
	<path d="M457.757,318.563v-13.697h-0.068c-0.555-9.928-24.621-18.207-57.079-20.588c-0.095,6.451-2.545,10.783-3.591,12.683
		c22.139,1.887,38.254,7.714,38.254,14.615c0,8.433-24.08,15.265-53.797,15.265c-29.68,0-53.76-6.833-53.76-15.265
		c0-8.033,21.907-14.615,49.696-15.21c0.05-0.123,0.309-8.669-5.141-12.643c-37.359,1.296-66.384,10.219-66.971,21.143h-0.068
		v76.258c0,42.132,34.14,76.263,76.244,76.263c32.363,0,59.952-20.18,71.021-48.619c1.732,0.205,3.464,0.532,5.259,0.532
		c25.012,0,45.369-20.353,45.369-45.373C503.126,338.906,482.769,318.563,457.757,318.563z M457.757,384.002
		c-0.05,0-0.1-0.018-0.132-0.018c0.014-0.955,0.132-1.896,0.132-2.859v-37.272c11.069,0,20.066,9.006,20.066,20.075
		C477.823,374.987,468.827,384.002,457.757,384.002z"/>
	<path d="M351.21,242.533c1.6,25.734,33.208,27.834,33.208,44.095c0,10.033-4.573,15.47-5.587,17.079
		c-0.391,0.619-1.091,1.787,0.1,2.955c0.85,0.832,2.187,0.873,3.055,0.032c3.019-2.914,10.365-10.146,10.365-21.911
		c0-18.57-24.652-26.471-24.652-41.232c0-18.988,22.989-9.487,23.675-9.324c6.824,1.586,13.647-2.659,15.247-9.483
		c1.587-6.841-1.859-11.383-9.501-15.251C388.382,205.069,348.987,207.438,351.21,242.533z"/>
</g>
</svg>
