<svg xmlns="http://www.w3.org/2000/svg" width="487.086" height="487.086" viewBox="0 0 487.086 487.086"><path d="M391.47 37.71H373.93V25.755C373.928 11.516 362.396 0 348.174 0H138.896c-14.207 0-25.738 11.516-25.738 25.754V37.71H95.616c-9.395 0-17.02 7.626-17.02 17.02V77.4c0 3.526 2.863 6.374 6.375 6.374h317.146c3.513 0 6.375-2.848 6.375-6.375V54.73c0-9.394-7.625-17.02-17.02-17.02zM326.787 364.965l-7.48 85.105c-.238 2.625-2.406 4.615-5.062 4.615H172.842c-2.61 0-4.824-2.02-5.063-4.615l-7.48-85.105h-22.544c-3.527 0-6.898-.647-10.125-1.613l7.88 89.53c1.707 19.51 17.766 34.204 37.332 34.204h141.403c19.563 0 35.62-14.695 37.332-34.203l7.875-89.5c-3.195.95-6.5 1.582-9.98 1.582h-22.685zM113.033 197.195c4.285-1.79 8.887-2.816 13.633-2.816h18.652l-5.14-58.403h206.745l-5.142 58.402h18.778c4.7 0 9.254 1.01 13.508 2.78l8.228-93.582H104.807l8.226 93.617zM360.56 218.676H126.667c-3.113 0-6.09 1.328-8.16 3.637-1.82 2.043-2.645 4.7-2.61 7.402 0 .383-.16.73-.112 1.11l1.012 9.108 10.063 90.988c.616 5.57 5.3 9.747 10.897 9.747H349.47c5.605 0 10.282-4.177 10.9-9.746l9.413-85.102 1.483-16.8c-.14-2.47-.883-4.84-2.543-6.707-2.073-2.306-5.045-3.634-8.162-3.634zm-91.812 89.676c-22.19 22.207-53.04 27.363-68.888 11.53-15.836-15.85-10.68-46.694 11.53-68.89 22.192-22.21 53.04-27.367 68.888-11.53 15.837 15.85 10.68 46.68-11.53 68.89z"/><path d="M266.028 243.73c-17.465 4.892-31.18 18.84-35.796 36.383-1.55 5.84-5.41 10.884-10.633 13.858l-11.42 6.532c-3.894 2.215-5.237 7.168-3.022 11.06 1.504 2.608 4.238 4.08 7.04 4.08 1.378 0 2.753-.35 4.02-1.076l11.42-6.517c8.954-5.126 15.61-13.794 18.255-23.794 3.164-12.035 12.56-21.574 24.504-24.93 4.316-1.22 6.816-5.695 5.613-9.996-1.203-4.303-5.65-6.834-9.982-5.6z"/></svg>