<svg xmlns="http://www.w3.org/2000/svg" viewBox="0 0 611.996 611.996"><path d="M588.63 113.193L213.812 33.87c-15.858-3.354-31.576 6.877-34.93 22.735l-7.122 45.762 432.477 91.52 7.12-45.763c3.356-15.852-6.87-31.575-22.727-34.93zM431.01 203.59c-4.38-15.765-20.855-25.084-36.616-20.713L323.24 202.63l-167.742-35.5-18.448 87.165-115.264 31.992c-15.76 4.372-25.08 20.848-20.708 36.61l64.958 234.077c4.378 15.76 20.855 25.085 36.615 20.708L475.26 474.28c15.76-4.38 25.078-20.85 20.707-36.616l-11.15-40.184 41.79 8.835c15.857 3.36 31.575-6.87 34.93-22.728l26.44-124.937-150.527-31.853-6.44-23.206zm43.03 118.97l9.215-43.553c1.384-6.52 7.85-10.727 14.37-9.35l43.552 9.22c6.527 1.385 10.733 7.844 9.356 14.37l-9.215 43.553c-1.384 6.52-7.85 10.733-14.37 9.35l-43.552-9.215c-6.533-1.39-10.74-7.855-9.356-14.376zM28.27 309.645l103.115-28.606 243.3-67.517 26.18-7.274c.478-.13.955-.19 1.42-.19 2.1 0 4.612 1.377 5.346 4.016l3.075 11.07 9.63 34.704L37.15 362.186l-12.705-45.768c-.796-2.872.956-5.976 3.827-6.772zM472.6 444.14c.49 1.777-.023 3.246-.544 4.165-.514.918-1.506 2.12-3.282 2.608l-372.6 103.403c-.472.13-.956.196-1.422.196-2.1 0-4.61-1.384-5.345-4.023L51.52 413.954l383.187-106.342 23.37 84.208 14.524 52.32z"/><path d="M156.38 453.484c-1.79-6.43-8.5-10.225-14.93-8.443l-43.514 12.08c-6.423 1.783-10.225 8.5-8.437 14.93l12.073 43.508c1.788 6.43 8.5 10.225 14.928 8.437l43.516-12.074c6.43-1.78 10.225-8.498 8.443-14.927l-12.08-43.51z"/></svg>