<svg xmlns="http://www.w3.org/2000/svg" width="612" height="612" viewBox="0 0 612 612"><path d="M226.764 375.35c-28.25 0-51.078 22.91-51.078 51.16 0 28.166 22.83 51.078 51.078 51.078s51.078-22.912 51.078-51.078c0-28.25-22.83-51.16-51.078-51.16zm0 76.7c-14.125 0-25.54-11.5-25.54-25.542 0-14.123 11.415-25.54 25.54-25.54 14.124 0 25.54 11.417 25.54 25.54-.002 14.043-11.416 25.54-25.54 25.54zM612 337.56v54.542c0 13.605-11.03 24.635-24.636 24.635h-26.36c-4.763-32.684-32.93-57.812-66.927-57.812-33.914 0-62.082 25.13-66.845 57.812H293.625c-4.763-32.684-32.93-57.812-66.845-57.812s-62.082 25.13-66.844 57.812h-33.012c-13.606 0-24.635-11.03-24.635-24.635v-54.54H612zm-117.857 37.79c-28.25 0-51.16 22.91-51.16 51.16 0 28.166 22.912 51.078 51.16 51.078 28.166 0 51.077-22.912 51.077-51.078 0-28.25-22.91-51.16-51.077-51.16zm0 76.7c-14.125 0-25.54-11.5-25.54-25.542 0-14.123 11.415-25.54 25.54-25.54 14.042 0 25.54 11.417 25.54 25.54 0 14.043-11.498 25.54-25.54 25.54zm108.15-169.413l-96.817-95.75c-6.16-6.078-14.453-9.527-23.076-9.527h-48.86v-18.313c0-13.63-11.004-24.635-24.635-24.635H126.907c-13.55 0-24.635 11.005-24.635 24.635v3.86L2.3 174.43l177.146 23.067L0 215.323l178.814 25.423L0 256.25l102.278 19.29-.007 48.403h509.713v-17.985c0-8.787-3.53-17.162-9.69-23.32zm-42.21 3.202h-93.696c-2.135 0-3.86-1.725-3.86-3.86v-72.347c0-2.135 1.725-3.86 3.86-3.86h17.82c.985 0 1.97.41 2.71 1.068l75.796 72.348c2.544 2.38.82 6.65-2.63 6.65z"/></svg>