<svg xmlns="http://www.w3.org/2000/svg" width="487.811" height="487.81" viewBox="0 0 487.811 487.81"><path d="M150.463 109.52h150.512c3.955 0 7.16-3.205 7.16-7.16s-3.205-7.16-7.16-7.16H150.463c-3.955 0-7.16 3.205-7.16 7.16s3.205 7.16 7.16 7.16zM15.853 179.537h150.51c3.956 0 7.162-3.206 7.162-7.16s-3.206-7.16-7.16-7.16H15.852c-3.955 0-7.16 3.204-7.16 7.16s3.205 7.16 7.16 7.16zM56.258 253.214c0 3.955 3.206 7.162 7.16 7.162H213.93c3.955 0 7.16-3.207 7.16-7.162s-3.205-7.16-7.16-7.16H63.42c-3.956 0-7.162 3.205-7.162 7.16zM142.396 336.44H7.16c-3.954 0-7.16 3.205-7.16 7.16s3.206 7.16 7.16 7.16h135.236c3.955 0 7.16-3.205 7.16-7.16s-3.205-7.16-7.16-7.16zM385.73 154.418c21.6 0 39.11-17.513 39.11-39.114S407.328 76.19 385.73 76.19c-21.606 0-39.12 17.514-39.12 39.114 0 21.6 17.513 39.114 39.12 39.114z"/><path d="M450.066 143.155c-22.46 31.46-52.533 35.102-84.895 15.89-2.202-1.306-11.976-6.69-14.14-7.977-52.06-30.906-104.06-18.786-138.934 30.05-14.82 20.77 19.455 40.46 34.108 19.93 18.018-25.232 40.93-32.533 65.986-24.54-12.83 22.27-24.047 44.404-39.875 75.852-15.832 31.448-50.787 56.562-84.374 36.92-24.234-14.165-46.09 20.65-21.927 34.772 45.854 26.8 99.62 10.343 127.066-24.493.95.508 1.957.967 3.06 1.353 22.423 7.812 51.815 28.61 60.77 35.98 8.954 7.372 24.337 44.922 33.472 63.79 11.082 22.892 46.87 6.218 35.748-16.772-10.355-21.405-27.736-64.128-41.293-74.937-10.875-8.67-31.988-24.803-49.895-33.956 12.115-23.466 24.73-46.68 38.008-69.49 42.328 12.968 82.56-2.31 111.215-42.447 14.83-20.768-19.435-40.456-34.1-19.925z"/></svg>