<svg xmlns="http://www.w3.org/2000/svg" viewBox="0 0 490.98 490.98"><g fill="#010002"><path d="M135.643 83.013c22.938 0 41.494-18.647 41.494-41.51 0-22.89-18.57-41.503-41.494-41.503C112.72 0 94.14 18.613 94.14 41.502c0 22.864 18.564 41.51 41.503 41.51zM189.137 233.97h109.47v256.488h47.074v-256.49h110.07v-39.55H189.137"/><path d="M244.63 264.92H131.22l11.563-81.626 118.587.018c2.482 0 4.498-2.012 4.5-4.496l.03-31.547c.003-1.195-.47-2.34-1.315-3.186-.844-.845-1.988-1.32-3.184-1.32H149.75l5.288-41.82c.162-1.282-.234-2.57-1.09-3.54-.853-.97-2.083-1.524-3.375-1.524h-43.868c-1.62 0-3.117.872-3.916 2.283-.373.656-.688 1.427-.912 2.207l-70.09 211.926c-.453 1.372-.22 2.878.625 4.05.847 1.17 2.203 1.863 3.647 1.863h159.818l-.104 161.814c0 1.194.473 2.34 1.316 3.184.845.845 1.99 1.32 3.184 1.32l44.51-.005c1.193 0 2.338-.475 3.182-1.32s1.318-1.99 1.316-3.183l-.152-210.605c0-2.484-2.015-4.496-4.5-4.496z"/><path d="M40.73 351.847h57.602V490.98h24.765V351.847H181v-20.785H40.73M401.86 187.452l57.56-101.838-17.573-9.922-52.207 92.254H284.017v20.213H401.86"/></g></svg>