<svg xmlns="http://www.w3.org/2000/svg" width="612" height="612" viewBox="0 0 612 612"><path d="M310.634 43.714H297.17c-7.194 0-13.026-5.833-13.026-13.026v-.438C284.144 13.543 270.6 0 253.894 0h-.7c-16.707 0-30.25 13.543-30.25 30.25v.438c0 7.194-5.833 13.027-13.026 13.027h-13.464c-14.34 0-25.966 11.625-25.966 25.966v.526c0 14.34 11.625 25.966 25.966 25.966h114.183c14.34 0 25.965-11.626 25.965-25.966v-.526c0-14.34-11.626-25.966-25.968-25.966zm-57.09 0c-7.244 0-13.115-5.872-13.115-13.114 0-7.243 5.87-13.115 13.113-13.115 7.243 0 13.114 5.872 13.114 13.115s-5.87 13.114-13.114 13.114zM311.928 550.8H91.8c-19.314 0-34.97-15.657-34.97-34.97V96.17c0-19.313 15.656-34.97 26.227-34.97h70.854c-.59 2.904-.91 5.914-.91 9.008 0 23.958 19.493 43.45 43.455 43.45h114.178c23.963 0 43.453-19.492 43.453-43.98 0-2.902-.31-5.732-.855-8.478h53.313c28.06 0 43.715 15.657 43.715 34.97V358.9c-2.906-.182-5.79-.443-8.742-.443-12.094 0-23.77 1.704-34.973 4.604V157.37h-306v349.716H302.07c.96 15.367 4.317 30.076 9.86 43.714zm129.585-166.114c-62.77 0-113.656 50.887-113.656 113.657S378.742 612 441.514 612 555.17 561.113 555.17 498.343s-50.884-113.657-113.655-113.657zm74.267 90.305l-69.943 78.687c-3.446 3.877-8.245 5.865-13.077 5.865-3.838 0-7.697-1.255-10.916-3.833l-43.715-34.972c-7.54-6.028-8.764-17.034-2.727-24.573 6.027-7.547 17.037-8.77 24.576-2.73l30.75 24.597 58.915-66.28c6.408-7.215 17.465-7.872 24.684-1.45 7.22 6.42 7.868 17.467 1.452 24.69zM362.83 306H222.943c-4.83 0-8.743-3.915-8.743-8.743v-8.743c0-4.83 3.915-8.743 8.744-8.743H362.83c4.827 0 8.743 3.916 8.743 8.744v8.743c-.002 4.828-3.916 8.743-8.744 8.743zm0-78.686H222.943c-4.83 0-8.743-3.915-8.743-8.743v-8.742c0-4.83 3.915-8.743 8.744-8.743H362.83c4.827 0 8.743 3.915 8.743 8.743v8.743c-.002 4.83-3.916 8.744-8.744 8.744zm-43.716 148.63h-96.17c-4.83 0-8.743-3.916-8.743-8.744v-8.743c0-4.83 3.915-8.743 8.744-8.743h96.17c4.83 0 8.744 3.914 8.744 8.743v8.743c-.002 4.828-3.914 8.743-8.744 8.743zm-17.485 78.685h-78.687c-4.83 0-8.743-3.916-8.743-8.744v-8.743c0-4.83 3.914-8.743 8.743-8.743h78.686c4.828 0 8.742 3.914 8.742 8.743v8.743c0 4.828-3.914 8.743-8.743 8.743zM197.46 194.98l-32.198 36.225c-1.586 1.785-3.795 2.7-6.02 2.7-1.767 0-3.543-.577-5.025-1.764l-20.125-16.098c-3.47-2.775-4.034-7.84-1.256-11.312 2.774-3.475 7.844-4.037 11.314-1.258l14.155 11.323 27.123-30.513c2.95-3.32 8.04-3.624 11.363-.668 3.327 2.956 3.625 8.042.67 11.367zm0 77.787l-32.198 36.223c-1.586 1.785-3.795 2.7-6.02 2.7-1.767 0-3.543-.577-5.025-1.765l-20.125-16.1c-3.47-2.774-4.034-7.84-1.256-11.31 2.774-3.476 7.844-4.038 11.314-1.26l14.155 11.325 27.123-30.513c2.95-3.32 8.04-3.624 11.363-.667 3.327 2.955 3.625 8.042.67 11.367zm0 74.39l-32.198 36.223c-1.586 1.784-3.795 2.7-6.02 2.7-1.767 0-3.543-.577-5.025-1.765l-20.125-16.1c-3.47-2.774-4.034-7.84-1.256-11.312 2.774-3.475 7.844-4.037 11.314-1.258l14.155 11.323 27.123-30.513c2.95-3.32 8.04-3.624 11.363-.668 3.327 2.958 3.625 8.044.67 11.37zm0 74.913l-32.198 36.224c-1.586 1.785-3.795 2.7-6.02 2.7-1.767 0-3.543-.577-5.025-1.765l-20.125-16.1c-3.47-2.775-4.034-7.842-1.256-11.313 2.774-3.475 7.844-4.037 11.314-1.258l14.155 11.322 27.123-30.513c2.95-3.322 8.04-3.625 11.363-.67 3.327 2.96 3.625 8.046.67 11.37z"/></svg>