<svg xmlns="http://www.w3.org/2000/svg" viewBox="0 0 367.732 367.732"><path d="M183.864 88.596c21.65 0 39.71-15.615 43.538-36.17h21.674c4.418 0 8-3.583 8-8s-3.582-8-8-8h-21.63C223.722 15.743 205.604 0 183.865 0c-24.426 0-44.298 19.872-44.298 44.298s19.872 44.298 44.298 44.298zm0-16c-14.007 0-25.663-10.23-27.903-23.612 1.446 2.078 3.847 3.44 6.57 3.44h48.437c-3.5 11.655-14.323 20.172-27.103 20.172zm0-56.596c12.872 0 23.756 8.642 27.176 20.425h-48.51c-2.76 0-5.19 1.396-6.63 3.52C158 26.402 169.74 16 183.865 16zm121.75 226.053l-26.438-65.158c-8.184-20.166-16.828-34.45-27.203-44.954-13.763-13.933-30.778-20.997-50.573-20.997h-35.07c-19.793 0-36.808 7.064-50.57 20.998-10.376 10.504-19.02 24.788-27.207 44.955l-26.436 65.158c-1.66 4.095.312 8.76 4.405 10.42.985.4 2.003.59 3.005.59 3.16 0 6.155-1.886 7.416-4.994l26.435-65.158c7.735-19.055 16.16-32.79 26.005-41.89v22.6l-7.516 159.738c-.103 2.185.693 4.316 2.203 5.898 1.51 1.582 3.6 2.478 5.788 2.478H152.5v19.995h-17.925c-4.418 0-8 3.583-8 8s3.582 8 8 8h25.887c.013 0 .026.003.04.003 4.417 0 8-3.582 8-8v-27.997h30.723v27.997c0 4.418 3.582 8 8 8l.04-.002h25.886c4.42 0 8-3.58 8-8s-3.58-8-8-8h-17.925v-19.994h22.663c4.418 0 8-3.582 8-8 0-.32-.02-.64-.056-.95l-7.488-159.163v-22.605c9.847 9.102 18.27 22.836 26.005 41.894l26.438 65.158c1.66 4.095 6.326 6.063 10.42 4.405 4.096-1.662 6.068-6.33 4.407-10.422zm-167.37 73.682l6.772-143.924h77.696l6.77 143.925h-91.237zm84.1-159.923h-76.96v-25.07c6.384-2.563 13.32-3.8 20.95-3.8h35.065c7.625 0 14.56 1.237 20.944 3.8v25.07zm-51.504 67.884c0 6.57 2.068 11.336 3.562 12.25 3.77 2.305 4.955 7.23 2.65 10.998-1.51 2.466-4.14 3.826-6.833 3.826-1.424 0-2.865-.38-4.168-1.177-7.02-4.295-11.21-13.976-11.21-25.896 0-11.923 4.19-21.605 11.21-25.9 3.768-2.306 8.692-1.12 11 2.647s1.12 8.693-2.65 11c-1.493.913-3.562 5.68-3.562 12.252zm40.137 0c0 11.92-4.19 21.602-11.208 25.897-1.304.798-2.746 1.178-4.17 1.178-2.692 0-5.322-1.358-6.83-3.824-2.307-3.77-1.122-8.693 2.647-11 1.492-.913 3.56-5.678 3.56-12.25 0-6.57-2.068-11.338-3.56-12.252-3.77-2.307-4.955-7.23-2.648-11 2.305-3.77 7.23-4.954 11-2.646 7.018 4.295 11.208 13.977 11.207 25.9z"/></svg>