<svg xmlns="http://www.w3.org/2000/svg" width="512" height="512" viewBox="0 0 512 512"><path d="M8.874 342.96c0 13.52 10.97 24.485 24.49 24.485h255.28V318.48H33.365c-13.52 0-24.49 10.957-24.49 24.48zM44.596 270.13V87.258H337.59l.2 135.19V222.325s6.155-25.434 32.453-34.025V85.663c0-17.124-13.924-31.05-31.035-31.05H42.996c-17.11 0-31.053 13.926-31.053 31.05v186.06c0 17.12 13.942 31.052 31.053 31.052h245.65v-2.49c0-9.084 5.227-22.13 30.793-30.154H44.595zM457.757 318.563v-13.697h-.068c-.556-9.928-24.622-18.207-57.08-20.588-.095 6.45-2.545 10.783-3.59 12.683 22.138 1.888 38.253 7.715 38.253 14.616 0 8.433-24.08 15.265-53.797 15.265-29.68 0-53.76-6.832-53.76-15.264 0-8.033 21.907-14.615 49.696-15.21.05-.123.31-8.67-5.14-12.643-37.36 1.296-66.385 10.22-66.972 21.143h-.068v76.258c0 42.132 34.14 76.263 76.244 76.263 32.363 0 59.952-20.18 71.02-48.62 1.733.206 3.465.533 5.26.533 25.012 0 45.37-20.353 45.37-45.373 0-25.02-20.357-45.364-45.37-45.364zm0 65.44c-.05 0-.1-.02-.132-.02.014-.954.132-1.895.132-2.858v-37.272c11.07 0 20.066 9.006 20.066 20.075 0 11.06-8.996 20.074-20.066 20.074z"/><path d="M351.21 242.533c1.6 25.734 33.208 27.834 33.208 44.095 0 10.033-4.573 15.47-5.587 17.08-.39.618-1.09 1.786.1 2.954.85.832 2.188.873 3.056.032 3.02-2.914 10.365-10.146 10.365-21.91 0-18.57-24.65-26.472-24.65-41.233 0-18.987 22.988-9.486 23.674-9.323 6.824 1.586 13.647-2.66 15.247-9.483 1.588-6.84-1.858-11.383-9.5-15.25-8.738-4.425-48.133-2.056-45.91 33.04z"/></svg>