<?xml version="1.0" encoding="iso-8859-1"?>
<!-- Generator: Adobe Illustrator 17.1.0, SVG Export Plug-In . SVG Version: 6.00 Build 0)  -->
<!DOCTYPE svg PUBLIC "-//W3C//DTD SVG 1.1//EN" "http://www.w3.org/Graphics/SVG/1.1/DTD/svg11.dtd">
<svg version="1.1" id="Capa_1" xmlns="http://www.w3.org/2000/svg" xmlns:xlink="http://www.w3.org/1999/xlink" x="0px" y="0px"
	 viewBox="0 0 367.732 367.732" style="enable-background:new 0 0 367.732 367.732;" xml:space="preserve">
<path d="M183.864,88.596c21.649,0,39.709-15.615,43.538-36.171h21.674c4.418,0,8-3.582,8-8s-3.582-8-8-8h-21.629
	C223.721,15.744,205.603,0,183.864,0c-24.426,0-44.298,19.872-44.298,44.298S159.438,88.596,183.864,88.596z M183.864,72.596
	c-14.007,0-25.663-10.231-27.903-23.612c1.445,2.078,3.846,3.441,6.569,3.441h48.437C207.466,64.079,196.644,72.596,183.864,72.596z
	 M183.864,16c12.872,0,23.756,8.642,27.176,20.425h-48.51c-2.759,0-5.191,1.396-6.629,3.521C158.001,26.401,169.74,16,183.864,16z
	 M305.615,242.053l-26.439-65.158c-8.184-20.166-16.828-34.45-27.203-44.954c-13.763-13.934-30.778-20.998-50.573-20.998h-35.07
	c-19.793,0-36.808,7.064-50.571,20.998c-10.375,10.503-19.02,24.787-27.206,44.954l-26.436,65.158
	c-1.661,4.095,0.312,8.76,4.405,10.421c0.985,0.399,2.003,0.589,3.005,0.589c3.161,0,6.155-1.886,7.416-4.994l26.435-65.157
	c7.735-19.055,16.159-32.789,26.005-41.891v22.602l-7.516,159.737c-0.103,2.185,0.693,4.316,2.203,5.898
	c1.509,1.582,3.601,2.478,5.788,2.478h22.643v19.995h-17.926c-4.418,0-8,3.582-8,8s3.582,8,8,8h25.887
	c0.013,0,0.026,0.002,0.039,0.002c4.418,0,8-3.582,8-8v-27.997h30.724v27.997c0,4.418,3.582,8,8,8c0.013,0,0.026-0.002,0.039-0.002
	h25.887c4.418,0,8-3.582,8-8s-3.582-8-8-8h-17.926v-19.995h22.643c0.007-0.001,0.014-0.001,0.02,0c4.418,0,8-3.582,8-8
	c0-0.321-0.019-0.639-0.056-0.951l-7.488-159.162v-22.605c9.847,9.102,18.271,22.836,26.005,41.894l26.439,65.158
	c1.661,4.095,6.326,6.063,10.421,4.405C305.304,250.813,307.276,246.146,305.615,242.053z M138.245,315.735l6.771-143.924h77.696
	l6.771,143.924H138.245z M222.345,155.812h-76.961v-25.07c6.384-2.563,13.321-3.799,20.949-3.799h35.066
	c7.626,0,14.562,1.236,20.945,3.798V155.812z M170.84,223.696c0,6.571,2.068,11.336,3.562,12.249
	c3.769,2.306,4.955,7.23,2.649,10.999c-1.509,2.466-4.139,3.826-6.832,3.826c-1.423,0-2.864-0.38-4.167-1.177
	c-7.02-4.295-11.21-13.976-11.211-25.896c0-11.923,4.19-21.605,11.21-25.901c3.769-2.305,8.693-1.12,11,2.648s1.121,8.693-2.648,11
	C172.909,212.357,170.84,217.124,170.84,223.696z M210.977,223.697c0,11.92-4.19,21.601-11.208,25.896
	c-1.303,0.798-2.745,1.178-4.168,1.178c-2.693,0-5.323-1.359-6.832-3.825c-2.306-3.769-1.121-8.693,2.648-10.999
	c1.492-0.914,3.56-5.679,3.56-12.25c0-6.572-2.068-11.339-3.561-12.253c-3.769-2.307-4.954-7.231-2.647-11
	c2.306-3.769,7.23-4.954,11-2.646C206.788,202.093,210.978,211.775,210.977,223.697z"/>
<g>
</g>
<g>
</g>
<g>
</g>
<g>
</g>
<g>
</g>
<g>
</g>
<g>
</g>
<g>
</g>
<g>
</g>
<g>
</g>
<g>
</g>
<g>
</g>
<g>
</g>
<g>
</g>
<g>
</g>
</svg>
